<mxfile host="app.diagrams.net" modified="2023-09-15T11:08:59.775Z" agent="Mozilla/5.0 (Linux; Android 10; K) AppleWebKit/537.36 (KHTML, like Gecko) Chrome/117.0.0.0 Safari/537.36" version="21.7.2" etag="knVm5BdlpMKNgLy5JTwD" type="github">
  <diagram name="Page-1" id="uN004hcDjlSOMoqbYwlI">
    <mxGraphModel>
      <root>
        <mxCell id="0" />
        <mxCell id="1" parent="0" />
      </root>
    </mxGraphModel>
  </diagram>
</mxfile>
